<svg width="48" height="48" viewBox="0 0 48 48" fill="none" xmlns="http://www.w3.org/2000/svg">
<path fill-rule="evenodd" clip-rule="evenodd" d="M32 22C32 27.5228 27.5228 32 22 32C16.4772 32 12 27.5228 12 22C12 16.4772 16.4772 12 22 12C27.5228 12 32 16.4772 32 22ZM30.4002 33.2009C28.0603 34.9585 25.1518 36 22 36C14.268 36 8 29.732 8 22C8 14.268 14.268 8 22 8C29.732 8 36 14.268 36 22C36 25.1519 34.9584 28.0605 33.2007 30.4004C33.2403 30.4302 33.2791 30.4617 33.317 30.4949L41.317 37.4949C42.1483 38.2222 42.2325 39.4858 41.5052 40.317C40.7778 41.1483 39.5143 41.2325 38.683 40.5052L30.683 33.5052C30.5764 33.4119 30.4821 33.3098 30.4002 33.2009Z" fill="white"/>
</svg>
